<mxfile host="app.diagrams.net" modified="2021-01-13T06:12:19.808Z" agent="5.0 (X11; Linux x86_64) AppleWebKit/537.36 (KHTML, like Gecko) Chrome/87.0.4280.88 Safari/537.36" etag="FAfop4G-5nw3GBKUmFz6" version="14.1.4" type="github" pages="4">
  <diagram id="IQpMUzeUD5as-CEA1Lm1" name="XAVIER 流程图">
    <mxGraphModel dx="1995" dy="1134" grid="1" gridSize="10" guides="1" tooltips="1" connect="1" arrows="1" fold="1" page="1" pageScale="1" pageWidth="850" pageHeight="1100" math="0" shadow="0">
      <root>
        <mxCell id="RlAfQB4XkRquoUALfSSC-0" />
        <mxCell id="RlAfQB4XkRquoUALfSSC-1" parent="RlAfQB4XkRquoUALfSSC-0" />
        <mxCell id="u9vU8F32DOOHzYudOWOT-0" style="edgeStyle=orthogonalEdgeStyle;rounded=0;orthogonalLoop=1;jettySize=auto;html=1;entryX=0.5;entryY=0;entryDx=0;entryDy=0;" edge="1" parent="RlAfQB4XkRquoUALfSSC-1" source="u9vU8F32DOOHzYudOWOT-1" target="u9vU8F32DOOHzYudOWOT-5">
          <mxGeometry relative="1" as="geometry" />
        </mxCell>
        <mxCell id="u9vU8F32DOOHzYudOWOT-1" value="构建镜像" style="rounded=1;whiteSpace=wrap;html=1;" vertex="1" parent="RlAfQB4XkRquoUALfSSC-1">
          <mxGeometry x="370" width="150" height="60" as="geometry" />
        </mxCell>
        <mxCell id="u9vU8F32DOOHzYudOWOT-2" value="是" style="edgeStyle=orthogonalEdgeStyle;rounded=0;orthogonalLoop=1;jettySize=auto;html=1;exitX=0.5;exitY=1;exitDx=0;exitDy=0;" edge="1" parent="RlAfQB4XkRquoUALfSSC-1" source="u9vU8F32DOOHzYudOWOT-5" target="u9vU8F32DOOHzYudOWOT-9">
          <mxGeometry relative="1" as="geometry" />
        </mxCell>
        <mxCell id="u9vU8F32DOOHzYudOWOT-3" style="edgeStyle=orthogonalEdgeStyle;rounded=0;orthogonalLoop=1;jettySize=auto;html=1;exitX=0;exitY=0.5;exitDx=0;exitDy=0;" edge="1" parent="RlAfQB4XkRquoUALfSSC-1" source="u9vU8F32DOOHzYudOWOT-5" target="u9vU8F32DOOHzYudOWOT-17">
          <mxGeometry relative="1" as="geometry" />
        </mxCell>
        <mxCell id="u9vU8F32DOOHzYudOWOT-4" value="否" style="edgeLabel;html=1;align=center;verticalAlign=middle;resizable=0;points=[];" vertex="1" connectable="0" parent="u9vU8F32DOOHzYudOWOT-3">
          <mxGeometry x="-0.4172" relative="1" as="geometry">
            <mxPoint x="-5.83" as="offset" />
          </mxGeometry>
        </mxCell>
        <mxCell id="u9vU8F32DOOHzYudOWOT-5" value="硬件变化？" style="rhombus;whiteSpace=wrap;html=1;" vertex="1" parent="RlAfQB4XkRquoUALfSSC-1">
          <mxGeometry x="370" y="100" width="150" height="60" as="geometry" />
        </mxCell>
        <mxCell id="u9vU8F32DOOHzYudOWOT-6" style="edgeStyle=orthogonalEdgeStyle;rounded=0;orthogonalLoop=1;jettySize=auto;html=1;" edge="1" parent="RlAfQB4XkRquoUALfSSC-1" source="u9vU8F32DOOHzYudOWOT-7" target="u9vU8F32DOOHzYudOWOT-19">
          <mxGeometry relative="1" as="geometry">
            <mxPoint x="75" y="520" as="targetPoint" />
          </mxGeometry>
        </mxCell>
        <mxCell id="u9vU8F32DOOHzYudOWOT-7" value="基于最新镜像(Disk 2)" style="rounded=0;whiteSpace=wrap;html=1;" vertex="1" parent="RlAfQB4XkRquoUALfSSC-1">
          <mxGeometry y="300" width="150" height="60" as="geometry" />
        </mxCell>
        <mxCell id="u9vU8F32DOOHzYudOWOT-8" style="edgeStyle=orthogonalEdgeStyle;rounded=0;orthogonalLoop=1;jettySize=auto;html=1;exitX=0.5;exitY=1;exitDx=0;exitDy=0;" edge="1" parent="RlAfQB4XkRquoUALfSSC-1" source="u9vU8F32DOOHzYudOWOT-9" target="u9vU8F32DOOHzYudOWOT-21">
          <mxGeometry relative="1" as="geometry" />
        </mxCell>
        <mxCell id="u9vU8F32DOOHzYudOWOT-9" value="基于纯净镜像(Disk 1)" style="rounded=0;whiteSpace=wrap;html=1;" vertex="1" parent="RlAfQB4XkRquoUALfSSC-1">
          <mxGeometry x="370" y="200" width="150" height="60" as="geometry" />
        </mxCell>
        <mxCell id="u9vU8F32DOOHzYudOWOT-10" style="edgeStyle=orthogonalEdgeStyle;rounded=0;orthogonalLoop=1;jettySize=auto;html=1;exitX=0.5;exitY=1;exitDx=0;exitDy=0;" edge="1" parent="RlAfQB4XkRquoUALfSSC-1" source="u9vU8F32DOOHzYudOWOT-11" target="u9vU8F32DOOHzYudOWOT-30">
          <mxGeometry relative="1" as="geometry" />
        </mxCell>
        <mxCell id="u9vU8F32DOOHzYudOWOT-11" value="&lt;p&gt;更新 Docker + Map + QCraft&lt;/p&gt;" style="rounded=0;whiteSpace=wrap;html=1;" vertex="1" parent="RlAfQB4XkRquoUALfSSC-1">
          <mxGeometry x="180" y="400" width="150" height="60" as="geometry" />
        </mxCell>
        <mxCell id="u9vU8F32DOOHzYudOWOT-12" style="edgeStyle=orthogonalEdgeStyle;rounded=0;orthogonalLoop=1;jettySize=auto;html=1;exitX=0.5;exitY=1;exitDx=0;exitDy=0;" edge="1" parent="RlAfQB4XkRquoUALfSSC-1" source="u9vU8F32DOOHzYudOWOT-13" target="u9vU8F32DOOHzYudOWOT-11">
          <mxGeometry relative="1" as="geometry" />
        </mxCell>
        <mxCell id="u9vU8F32DOOHzYudOWOT-13" value="基于最新开发镜像(Disk 3)" style="rounded=0;whiteSpace=wrap;html=1;" vertex="1" parent="RlAfQB4XkRquoUALfSSC-1">
          <mxGeometry x="180" y="300" width="150" height="60" as="geometry" />
        </mxCell>
        <mxCell id="u9vU8F32DOOHzYudOWOT-14" style="edgeStyle=orthogonalEdgeStyle;rounded=0;orthogonalLoop=1;jettySize=auto;html=1;exitX=1;exitY=0.5;exitDx=0;exitDy=0;" edge="1" parent="RlAfQB4XkRquoUALfSSC-1" source="u9vU8F32DOOHzYudOWOT-17" target="u9vU8F32DOOHzYudOWOT-13">
          <mxGeometry relative="1" as="geometry" />
        </mxCell>
        <mxCell id="u9vU8F32DOOHzYudOWOT-15" value="是" style="edgeLabel;html=1;align=center;verticalAlign=middle;resizable=0;points=[];" vertex="1" connectable="0" parent="u9vU8F32DOOHzYudOWOT-14">
          <mxGeometry x="0.6694" y="-3" relative="1" as="geometry">
            <mxPoint x="3" y="-0.8300000000000001" as="offset" />
          </mxGeometry>
        </mxCell>
        <mxCell id="u9vU8F32DOOHzYudOWOT-16" value="否" style="edgeStyle=orthogonalEdgeStyle;rounded=0;orthogonalLoop=1;jettySize=auto;html=1;" edge="1" parent="RlAfQB4XkRquoUALfSSC-1" source="u9vU8F32DOOHzYudOWOT-17" target="u9vU8F32DOOHzYudOWOT-7">
          <mxGeometry x="-0.25" relative="1" as="geometry">
            <mxPoint as="offset" />
          </mxGeometry>
        </mxCell>
        <mxCell id="u9vU8F32DOOHzYudOWOT-17" value="开发镜像？" style="rhombus;whiteSpace=wrap;html=1;" vertex="1" parent="RlAfQB4XkRquoUALfSSC-1">
          <mxGeometry y="200" width="150" height="60" as="geometry" />
        </mxCell>
        <mxCell id="u9vU8F32DOOHzYudOWOT-18" style="edgeStyle=orthogonalEdgeStyle;rounded=0;orthogonalLoop=1;jettySize=auto;html=1;exitX=0.5;exitY=1;exitDx=0;exitDy=0;entryX=0.5;entryY=0;entryDx=0;entryDy=0;" edge="1" parent="RlAfQB4XkRquoUALfSSC-1" source="u9vU8F32DOOHzYudOWOT-19" target="u9vU8F32DOOHzYudOWOT-30">
          <mxGeometry relative="1" as="geometry" />
        </mxCell>
        <mxCell id="u9vU8F32DOOHzYudOWOT-19" value="&lt;p&gt;更新 Docker + Map&amp;nbsp;&lt;/p&gt;" style="rounded=0;whiteSpace=wrap;html=1;" vertex="1" parent="RlAfQB4XkRquoUALfSSC-1">
          <mxGeometry y="400" width="150" height="60" as="geometry" />
        </mxCell>
        <mxCell id="u9vU8F32DOOHzYudOWOT-20" style="edgeStyle=orthogonalEdgeStyle;rounded=0;orthogonalLoop=1;jettySize=auto;html=1;exitX=0.5;exitY=1;exitDx=0;exitDy=0;" edge="1" parent="RlAfQB4XkRquoUALfSSC-1" source="u9vU8F32DOOHzYudOWOT-21" target="u9vU8F32DOOHzYudOWOT-28">
          <mxGeometry relative="1" as="geometry" />
        </mxCell>
        <mxCell id="u9vU8F32DOOHzYudOWOT-21" value="&lt;p&gt;部署基础软件&lt;/p&gt;" style="rounded=0;whiteSpace=wrap;html=1;" vertex="1" parent="RlAfQB4XkRquoUALfSSC-1">
          <mxGeometry x="370" y="300" width="150" height="60" as="geometry" />
        </mxCell>
        <mxCell id="u9vU8F32DOOHzYudOWOT-22" value="否" style="edgeStyle=orthogonalEdgeStyle;rounded=0;orthogonalLoop=1;jettySize=auto;html=1;exitX=0.5;exitY=1;exitDx=0;exitDy=0;entryX=1;entryY=0.5;entryDx=0;entryDy=0;" edge="1" parent="RlAfQB4XkRquoUALfSSC-1" source="u9vU8F32DOOHzYudOWOT-24" target="u9vU8F32DOOHzYudOWOT-19">
          <mxGeometry x="0.514" relative="1" as="geometry">
            <mxPoint x="55" y="680" as="targetPoint" />
            <Array as="points">
              <mxPoint x="445" y="700" />
              <mxPoint x="170" y="700" />
              <mxPoint x="170" y="430" />
            </Array>
            <mxPoint as="offset" />
          </mxGeometry>
        </mxCell>
        <mxCell id="u9vU8F32DOOHzYudOWOT-23" value="是" style="edgeStyle=orthogonalEdgeStyle;rounded=0;orthogonalLoop=1;jettySize=auto;html=1;entryX=1;entryY=0.5;entryDx=0;entryDy=0;" edge="1" parent="RlAfQB4XkRquoUALfSSC-1" source="u9vU8F32DOOHzYudOWOT-24" target="u9vU8F32DOOHzYudOWOT-11">
          <mxGeometry x="-0.2381" relative="1" as="geometry">
            <mxPoint as="offset" />
          </mxGeometry>
        </mxCell>
        <mxCell id="u9vU8F32DOOHzYudOWOT-24" value="开发镜像？" style="rhombus;whiteSpace=wrap;html=1;" vertex="1" parent="RlAfQB4XkRquoUALfSSC-1">
          <mxGeometry x="370" y="600" width="150" height="60" as="geometry" />
        </mxCell>
        <mxCell id="u9vU8F32DOOHzYudOWOT-25" style="edgeStyle=orthogonalEdgeStyle;rounded=0;orthogonalLoop=1;jettySize=auto;html=1;entryX=0.5;entryY=0;entryDx=0;entryDy=0;" edge="1" parent="RlAfQB4XkRquoUALfSSC-1" source="u9vU8F32DOOHzYudOWOT-26" target="u9vU8F32DOOHzYudOWOT-24">
          <mxGeometry relative="1" as="geometry" />
        </mxCell>
        <mxCell id="u9vU8F32DOOHzYudOWOT-26" value="&lt;p&gt;部署环境变量&lt;/p&gt;" style="rounded=0;whiteSpace=wrap;html=1;" vertex="1" parent="RlAfQB4XkRquoUALfSSC-1">
          <mxGeometry x="370" y="500" width="150" height="60" as="geometry" />
        </mxCell>
        <mxCell id="u9vU8F32DOOHzYudOWOT-27" style="edgeStyle=orthogonalEdgeStyle;rounded=0;orthogonalLoop=1;jettySize=auto;html=1;exitX=0.5;exitY=1;exitDx=0;exitDy=0;" edge="1" parent="RlAfQB4XkRquoUALfSSC-1" source="u9vU8F32DOOHzYudOWOT-28" target="u9vU8F32DOOHzYudOWOT-26">
          <mxGeometry relative="1" as="geometry" />
        </mxCell>
        <mxCell id="u9vU8F32DOOHzYudOWOT-28" value="&lt;p&gt;重启系统&lt;/p&gt;" style="rounded=0;whiteSpace=wrap;html=1;" vertex="1" parent="RlAfQB4XkRquoUALfSSC-1">
          <mxGeometry x="370" y="400" width="150" height="60" as="geometry" />
        </mxCell>
        <mxCell id="u9vU8F32DOOHzYudOWOT-29" style="edgeStyle=orthogonalEdgeStyle;rounded=0;orthogonalLoop=1;jettySize=auto;html=1;exitX=0.5;exitY=1;exitDx=0;exitDy=0;" edge="1" parent="RlAfQB4XkRquoUALfSSC-1" source="u9vU8F32DOOHzYudOWOT-30" target="u9vU8F32DOOHzYudOWOT-31">
          <mxGeometry relative="1" as="geometry" />
        </mxCell>
        <mxCell id="u9vU8F32DOOHzYudOWOT-30" value="&lt;p&gt;构建镜像&lt;/p&gt;" style="rounded=0;whiteSpace=wrap;html=1;" vertex="1" parent="RlAfQB4XkRquoUALfSSC-1">
          <mxGeometry y="600" width="150" height="60" as="geometry" />
        </mxCell>
        <mxCell id="u9vU8F32DOOHzYudOWOT-31" value="&lt;p&gt;结束&lt;/p&gt;" style="rounded=0;whiteSpace=wrap;html=1;" vertex="1" parent="RlAfQB4XkRquoUALfSSC-1">
          <mxGeometry y="730" width="150" height="60" as="geometry" />
        </mxCell>
      </root>
    </mxGraphModel>
  </diagram>
  <diagram id="_MhzRE9uEBTky3oqlPsH" name="OMC 流程图">
    <mxGraphModel dx="3695" dy="1134" grid="1" gridSize="10" guides="1" tooltips="1" connect="1" arrows="1" fold="1" page="1" pageScale="1" pageWidth="850" pageHeight="1100" math="0" shadow="0">
      <root>
        <mxCell id="eiELui4HJ2NWo9TTOQv9-0" />
        <mxCell id="eiELui4HJ2NWo9TTOQv9-1" parent="eiELui4HJ2NWo9TTOQv9-0" />
        <mxCell id="39Y056oeODycGKBAAB_R-0" style="edgeStyle=orthogonalEdgeStyle;rounded=0;orthogonalLoop=1;jettySize=auto;html=1;entryX=0.5;entryY=0;entryDx=0;entryDy=0;fontSize=12;" edge="1" parent="eiELui4HJ2NWo9TTOQv9-1" source="39Y056oeODycGKBAAB_R-1" target="39Y056oeODycGKBAAB_R-7">
          <mxGeometry relative="1" as="geometry" />
        </mxCell>
        <mxCell id="39Y056oeODycGKBAAB_R-1" value="构建镜像" style="rounded=1;whiteSpace=wrap;html=1;fontSize=12;" vertex="1" parent="eiELui4HJ2NWo9TTOQv9-1">
          <mxGeometry x="-980" width="120" height="40" as="geometry" />
        </mxCell>
        <mxCell id="39Y056oeODycGKBAAB_R-2" value="是" style="edgeStyle=orthogonalEdgeStyle;rounded=0;orthogonalLoop=1;jettySize=auto;html=1;exitX=0.5;exitY=1;exitDx=0;exitDy=0;fontSize=12;" edge="1" parent="eiELui4HJ2NWo9TTOQv9-1" source="39Y056oeODycGKBAAB_R-7" target="39Y056oeODycGKBAAB_R-12">
          <mxGeometry relative="1" as="geometry" />
        </mxCell>
        <mxCell id="39Y056oeODycGKBAAB_R-3" style="edgeStyle=orthogonalEdgeStyle;rounded=0;orthogonalLoop=1;jettySize=auto;html=1;exitX=0;exitY=0.5;exitDx=0;exitDy=0;fontSize=12;" edge="1" parent="eiELui4HJ2NWo9TTOQv9-1" source="39Y056oeODycGKBAAB_R-7" target="39Y056oeODycGKBAAB_R-19">
          <mxGeometry relative="1" as="geometry" />
        </mxCell>
        <mxCell id="39Y056oeODycGKBAAB_R-4" value="否" style="edgeLabel;html=1;align=center;verticalAlign=middle;resizable=0;points=[];fontSize=12;" vertex="1" connectable="0" parent="39Y056oeODycGKBAAB_R-3">
          <mxGeometry x="-0.4172" relative="1" as="geometry">
            <mxPoint x="-5.83" as="offset" />
          </mxGeometry>
        </mxCell>
        <mxCell id="39Y056oeODycGKBAAB_R-5" style="edgeStyle=orthogonalEdgeStyle;rounded=0;orthogonalLoop=1;jettySize=auto;html=1;entryX=0.5;entryY=0;entryDx=0;entryDy=0;fontSize=12;exitX=0.5;exitY=1;exitDx=0;exitDy=0;" edge="1" parent="eiELui4HJ2NWo9TTOQv9-1" source="39Y056oeODycGKBAAB_R-7" target="39Y056oeODycGKBAAB_R-35">
          <mxGeometry relative="1" as="geometry" />
        </mxCell>
        <mxCell id="39Y056oeODycGKBAAB_R-6" value="是" style="edgeLabel;html=1;align=center;verticalAlign=middle;resizable=0;points=[];fontSize=12;" vertex="1" connectable="0" parent="39Y056oeODycGKBAAB_R-5">
          <mxGeometry x="0.1375" y="4" relative="1" as="geometry">
            <mxPoint y="4" as="offset" />
          </mxGeometry>
        </mxCell>
        <mxCell id="39Y056oeODycGKBAAB_R-7" value="硬件变化？" style="rhombus;whiteSpace=wrap;html=1;fontSize=12;" vertex="1" parent="eiELui4HJ2NWo9TTOQv9-1">
          <mxGeometry x="-980" y="80" width="120" height="40" as="geometry" />
        </mxCell>
        <mxCell id="39Y056oeODycGKBAAB_R-8" style="edgeStyle=orthogonalEdgeStyle;rounded=0;orthogonalLoop=1;jettySize=auto;html=1;fontSize=12;" edge="1" parent="eiELui4HJ2NWo9TTOQv9-1" source="39Y056oeODycGKBAAB_R-9" target="39Y056oeODycGKBAAB_R-50">
          <mxGeometry relative="1" as="geometry">
            <mxPoint x="-1465" y="539.9999999999999" as="targetPoint" />
          </mxGeometry>
        </mxCell>
        <mxCell id="39Y056oeODycGKBAAB_R-9" value="基于最新镜像&lt;br&gt;(OMC Disk 2)" style="rounded=0;whiteSpace=wrap;html=1;fontSize=12;" vertex="1" parent="eiELui4HJ2NWo9TTOQv9-1">
          <mxGeometry x="-1540" y="320" width="120" height="40" as="geometry" />
        </mxCell>
        <mxCell id="39Y056oeODycGKBAAB_R-10" style="edgeStyle=orthogonalEdgeStyle;rounded=0;orthogonalLoop=1;jettySize=auto;html=1;exitX=0.5;exitY=1;exitDx=0;exitDy=0;fontSize=12;" edge="1" parent="eiELui4HJ2NWo9TTOQv9-1" source="39Y056oeODycGKBAAB_R-12" target="39Y056oeODycGKBAAB_R-22">
          <mxGeometry relative="1" as="geometry" />
        </mxCell>
        <mxCell id="39Y056oeODycGKBAAB_R-11" style="edgeStyle=orthogonalEdgeStyle;rounded=0;orthogonalLoop=1;jettySize=auto;html=1;entryX=0.5;entryY=0;entryDx=0;entryDy=0;fontSize=12;exitX=0.5;exitY=1;exitDx=0;exitDy=0;" edge="1" parent="eiELui4HJ2NWo9TTOQv9-1" source="39Y056oeODycGKBAAB_R-35" target="39Y056oeODycGKBAAB_R-54">
          <mxGeometry relative="1" as="geometry" />
        </mxCell>
        <mxCell id="39Y056oeODycGKBAAB_R-12" value="基于基础镜像&lt;br&gt;(OMC Disk 1)" style="rounded=0;whiteSpace=wrap;html=1;fontSize=12;" vertex="1" parent="eiELui4HJ2NWo9TTOQv9-1">
          <mxGeometry x="-1060" y="158.7" width="120" height="40" as="geometry" />
        </mxCell>
        <mxCell id="39Y056oeODycGKBAAB_R-13" style="edgeStyle=orthogonalEdgeStyle;rounded=0;orthogonalLoop=1;jettySize=auto;html=1;exitX=0.5;exitY=1;exitDx=0;exitDy=0;fontSize=12;" edge="1" parent="eiELui4HJ2NWo9TTOQv9-1" source="39Y056oeODycGKBAAB_R-46" target="39Y056oeODycGKBAAB_R-31">
          <mxGeometry relative="1" as="geometry">
            <Array as="points">
              <mxPoint x="-1160" y="600" />
              <mxPoint x="-1400" y="600" />
            </Array>
          </mxGeometry>
        </mxCell>
        <mxCell id="39Y056oeODycGKBAAB_R-14" style="edgeStyle=orthogonalEdgeStyle;rounded=0;orthogonalLoop=1;jettySize=auto;html=1;exitX=0.5;exitY=1;exitDx=0;exitDy=0;fontSize=12;" edge="1" parent="eiELui4HJ2NWo9TTOQv9-1" source="39Y056oeODycGKBAAB_R-15" target="39Y056oeODycGKBAAB_R-46">
          <mxGeometry relative="1" as="geometry" />
        </mxCell>
        <mxCell id="39Y056oeODycGKBAAB_R-15" value="基于最新开发镜像(OMC Disk 3)" style="rounded=0;whiteSpace=wrap;html=1;fontSize=12;" vertex="1" parent="eiELui4HJ2NWo9TTOQv9-1">
          <mxGeometry x="-1220" y="320" width="120" height="40" as="geometry" />
        </mxCell>
        <mxCell id="39Y056oeODycGKBAAB_R-16" style="edgeStyle=orthogonalEdgeStyle;rounded=0;orthogonalLoop=1;jettySize=auto;html=1;exitX=1;exitY=0.5;exitDx=0;exitDy=0;fontSize=12;" edge="1" parent="eiELui4HJ2NWo9TTOQv9-1" source="39Y056oeODycGKBAAB_R-19" target="39Y056oeODycGKBAAB_R-15">
          <mxGeometry relative="1" as="geometry" />
        </mxCell>
        <mxCell id="39Y056oeODycGKBAAB_R-17" value="是" style="edgeLabel;html=1;align=center;verticalAlign=middle;resizable=0;points=[];fontSize=12;" vertex="1" connectable="0" parent="39Y056oeODycGKBAAB_R-16">
          <mxGeometry x="0.6694" y="-3" relative="1" as="geometry">
            <mxPoint x="3" y="14.6" as="offset" />
          </mxGeometry>
        </mxCell>
        <mxCell id="39Y056oeODycGKBAAB_R-18" value="否" style="edgeStyle=orthogonalEdgeStyle;rounded=0;orthogonalLoop=1;jettySize=auto;html=1;fontSize=12;exitX=0;exitY=0.5;exitDx=0;exitDy=0;" edge="1" parent="eiELui4HJ2NWo9TTOQv9-1" source="39Y056oeODycGKBAAB_R-19" target="39Y056oeODycGKBAAB_R-9">
          <mxGeometry x="0.25" relative="1" as="geometry">
            <mxPoint as="offset" />
          </mxGeometry>
        </mxCell>
        <mxCell id="39Y056oeODycGKBAAB_R-19" value="开发镜像？" style="rhombus;whiteSpace=wrap;html=1;fontSize=12;" vertex="1" parent="eiELui4HJ2NWo9TTOQv9-1">
          <mxGeometry x="-1460" y="240" width="120" height="40" as="geometry" />
        </mxCell>
        <mxCell id="39Y056oeODycGKBAAB_R-20" style="edgeStyle=orthogonalEdgeStyle;rounded=0;orthogonalLoop=1;jettySize=auto;html=1;entryX=0.5;entryY=0;entryDx=0;entryDy=0;fontSize=12;" edge="1" parent="eiELui4HJ2NWo9TTOQv9-1" source="39Y056oeODycGKBAAB_R-50" target="39Y056oeODycGKBAAB_R-31">
          <mxGeometry relative="1" as="geometry">
            <Array as="points">
              <mxPoint x="-1500" y="600" />
              <mxPoint x="-1400" y="600" />
            </Array>
          </mxGeometry>
        </mxCell>
        <mxCell id="39Y056oeODycGKBAAB_R-21" style="edgeStyle=orthogonalEdgeStyle;rounded=0;orthogonalLoop=1;jettySize=auto;html=1;exitX=0.5;exitY=1;exitDx=0;exitDy=0;fontSize=12;" edge="1" parent="eiELui4HJ2NWo9TTOQv9-1" source="39Y056oeODycGKBAAB_R-22" target="39Y056oeODycGKBAAB_R-29">
          <mxGeometry relative="1" as="geometry" />
        </mxCell>
        <mxCell id="39Y056oeODycGKBAAB_R-22" value="&lt;p style=&quot;font-size: 12px&quot;&gt;更新基础软件&lt;/p&gt;" style="rounded=0;whiteSpace=wrap;html=1;fontSize=12;" vertex="1" parent="eiELui4HJ2NWo9TTOQv9-1">
          <mxGeometry x="-1060" y="240" width="120" height="40" as="geometry" />
        </mxCell>
        <mxCell id="39Y056oeODycGKBAAB_R-23" value="否" style="edgeStyle=orthogonalEdgeStyle;rounded=0;orthogonalLoop=1;jettySize=auto;html=1;exitX=0.5;exitY=1;exitDx=0;exitDy=0;entryX=1;entryY=0.5;entryDx=0;entryDy=0;fontSize=12;" edge="1" parent="eiELui4HJ2NWo9TTOQv9-1" source="39Y056oeODycGKBAAB_R-25" target="39Y056oeODycGKBAAB_R-50">
          <mxGeometry x="0.6901" relative="1" as="geometry">
            <mxPoint x="-1365" y="680" as="targetPoint" />
            <Array as="points">
              <mxPoint x="-1000" y="560" />
              <mxPoint x="-1400" y="560" />
              <mxPoint x="-1400" y="420" />
            </Array>
            <mxPoint as="offset" />
          </mxGeometry>
        </mxCell>
        <mxCell id="39Y056oeODycGKBAAB_R-24" value="是" style="edgeStyle=orthogonalEdgeStyle;rounded=0;orthogonalLoop=1;jettySize=auto;html=1;fontSize=12;entryX=1;entryY=0.5;entryDx=0;entryDy=0;" edge="1" parent="eiELui4HJ2NWo9TTOQv9-1" source="39Y056oeODycGKBAAB_R-25" target="39Y056oeODycGKBAAB_R-46">
          <mxGeometry x="0.0608" relative="1" as="geometry">
            <mxPoint as="offset" />
            <mxPoint x="-1150" y="420" as="targetPoint" />
            <Array as="points">
              <mxPoint x="-1080" y="500" />
              <mxPoint x="-1080" y="420" />
            </Array>
          </mxGeometry>
        </mxCell>
        <mxCell id="39Y056oeODycGKBAAB_R-25" value="开发镜像？" style="rhombus;whiteSpace=wrap;html=1;fontSize=12;" vertex="1" parent="eiELui4HJ2NWo9TTOQv9-1">
          <mxGeometry x="-1060" y="480" width="120" height="40" as="geometry" />
        </mxCell>
        <mxCell id="39Y056oeODycGKBAAB_R-26" style="edgeStyle=orthogonalEdgeStyle;rounded=0;orthogonalLoop=1;jettySize=auto;html=1;entryX=0.5;entryY=0;entryDx=0;entryDy=0;fontSize=12;" edge="1" parent="eiELui4HJ2NWo9TTOQv9-1" source="39Y056oeODycGKBAAB_R-27" target="39Y056oeODycGKBAAB_R-25">
          <mxGeometry relative="1" as="geometry" />
        </mxCell>
        <mxCell id="39Y056oeODycGKBAAB_R-27" value="&lt;p style=&quot;font-size: 12px&quot;&gt;更新OMC环境变量&lt;/p&gt;" style="rounded=0;whiteSpace=wrap;html=1;fontSize=12;" vertex="1" parent="eiELui4HJ2NWo9TTOQv9-1">
          <mxGeometry x="-1060" y="400" width="120" height="40" as="geometry" />
        </mxCell>
        <mxCell id="39Y056oeODycGKBAAB_R-28" style="edgeStyle=orthogonalEdgeStyle;rounded=0;orthogonalLoop=1;jettySize=auto;html=1;exitX=0.5;exitY=1;exitDx=0;exitDy=0;fontSize=12;" edge="1" parent="eiELui4HJ2NWo9TTOQv9-1" source="39Y056oeODycGKBAAB_R-29" target="39Y056oeODycGKBAAB_R-27">
          <mxGeometry relative="1" as="geometry" />
        </mxCell>
        <mxCell id="39Y056oeODycGKBAAB_R-29" value="&lt;p style=&quot;font-size: 12px;&quot;&gt;重启系统&lt;/p&gt;" style="rounded=0;whiteSpace=wrap;html=1;fontSize=12;" vertex="1" parent="eiELui4HJ2NWo9TTOQv9-1">
          <mxGeometry x="-1060" y="320" width="120" height="40" as="geometry" />
        </mxCell>
        <mxCell id="39Y056oeODycGKBAAB_R-30" style="edgeStyle=orthogonalEdgeStyle;rounded=0;orthogonalLoop=1;jettySize=auto;html=1;exitX=0.5;exitY=1;exitDx=0;exitDy=0;fontSize=12;" edge="1" parent="eiELui4HJ2NWo9TTOQv9-1" source="39Y056oeODycGKBAAB_R-31" target="39Y056oeODycGKBAAB_R-32">
          <mxGeometry relative="1" as="geometry" />
        </mxCell>
        <mxCell id="39Y056oeODycGKBAAB_R-31" value="&lt;p style=&quot;font-size: 12px;&quot;&gt;构建镜像&lt;/p&gt;" style="rounded=0;whiteSpace=wrap;html=1;fontSize=12;" vertex="1" parent="eiELui4HJ2NWo9TTOQv9-1">
          <mxGeometry x="-1460" y="640" width="120" height="40" as="geometry" />
        </mxCell>
        <mxCell id="39Y056oeODycGKBAAB_R-32" value="&lt;p style=&quot;font-size: 12px;&quot;&gt;结束&lt;/p&gt;" style="rounded=0;whiteSpace=wrap;html=1;fontSize=12;" vertex="1" parent="eiELui4HJ2NWo9TTOQv9-1">
          <mxGeometry x="-1460" y="720" width="120" height="40" as="geometry" />
        </mxCell>
        <mxCell id="39Y056oeODycGKBAAB_R-33" style="edgeStyle=orthogonalEdgeStyle;rounded=0;orthogonalLoop=1;jettySize=auto;html=1;fontSize=12;" edge="1" parent="eiELui4HJ2NWo9TTOQv9-1" source="39Y056oeODycGKBAAB_R-34" target="39Y056oeODycGKBAAB_R-25">
          <mxGeometry relative="1" as="geometry">
            <Array as="points">
              <mxPoint x="-840" y="500" />
            </Array>
          </mxGeometry>
        </mxCell>
        <mxCell id="39Y056oeODycGKBAAB_R-34" value="&lt;p style=&quot;font-size: 12px&quot;&gt;更新XAVIER环境变量&lt;/p&gt;" style="rounded=0;whiteSpace=wrap;html=1;fontSize=12;" vertex="1" parent="eiELui4HJ2NWo9TTOQv9-1">
          <mxGeometry x="-900" y="400" width="120" height="40" as="geometry" />
        </mxCell>
        <mxCell id="39Y056oeODycGKBAAB_R-35" value="基于基础镜像(XAVIER Disk 1)" style="rounded=0;whiteSpace=wrap;html=1;fontSize=12;" vertex="1" parent="eiELui4HJ2NWo9TTOQv9-1">
          <mxGeometry x="-900" y="158.7" width="120" height="40" as="geometry" />
        </mxCell>
        <mxCell id="39Y056oeODycGKBAAB_R-36" style="edgeStyle=orthogonalEdgeStyle;rounded=0;orthogonalLoop=1;jettySize=auto;html=1;entryX=0.5;entryY=0;entryDx=0;entryDy=0;fontSize=12;exitX=0.5;exitY=1;exitDx=0;exitDy=0;" edge="1" parent="eiELui4HJ2NWo9TTOQv9-1" source="39Y056oeODycGKBAAB_R-51" target="39Y056oeODycGKBAAB_R-31">
          <mxGeometry relative="1" as="geometry">
            <Array as="points">
              <mxPoint x="-1320" y="600" />
              <mxPoint x="-1400" y="600" />
            </Array>
          </mxGeometry>
        </mxCell>
        <mxCell id="39Y056oeODycGKBAAB_R-37" style="edgeStyle=orthogonalEdgeStyle;rounded=0;orthogonalLoop=1;jettySize=auto;html=1;exitX=0.5;exitY=1;exitDx=0;exitDy=0;fontSize=12;" edge="1" parent="eiELui4HJ2NWo9TTOQv9-1" source="39Y056oeODycGKBAAB_R-38" target="39Y056oeODycGKBAAB_R-51">
          <mxGeometry relative="1" as="geometry" />
        </mxCell>
        <mxCell id="39Y056oeODycGKBAAB_R-38" value="基于最新开发镜像(XAVIER Disk 3)" style="rounded=0;whiteSpace=wrap;html=1;fontSize=12;" vertex="1" parent="eiELui4HJ2NWo9TTOQv9-1">
          <mxGeometry x="-1380" y="320" width="120" height="40" as="geometry" />
        </mxCell>
        <mxCell id="39Y056oeODycGKBAAB_R-39" style="edgeStyle=orthogonalEdgeStyle;rounded=0;orthogonalLoop=1;jettySize=auto;html=1;fontSize=12;" edge="1" parent="eiELui4HJ2NWo9TTOQv9-1" source="39Y056oeODycGKBAAB_R-19" target="39Y056oeODycGKBAAB_R-38">
          <mxGeometry relative="1" as="geometry">
            <mxPoint x="-1700" y="325" as="sourcePoint" />
            <Array as="points">
              <mxPoint x="-1320" y="260" />
            </Array>
          </mxGeometry>
        </mxCell>
        <mxCell id="39Y056oeODycGKBAAB_R-40" value="是" style="edgeLabel;html=1;align=center;verticalAlign=middle;resizable=0;points=[];fontSize=12;" vertex="1" connectable="0" parent="39Y056oeODycGKBAAB_R-39">
          <mxGeometry x="0.6694" y="-3" relative="1" as="geometry">
            <mxPoint x="3" y="-14.34" as="offset" />
          </mxGeometry>
        </mxCell>
        <mxCell id="39Y056oeODycGKBAAB_R-41" style="edgeStyle=orthogonalEdgeStyle;rounded=0;orthogonalLoop=1;jettySize=auto;html=1;fontSize=12;" edge="1" parent="eiELui4HJ2NWo9TTOQv9-1" source="39Y056oeODycGKBAAB_R-42" target="39Y056oeODycGKBAAB_R-52">
          <mxGeometry relative="1" as="geometry">
            <mxPoint x="-1625" y="539.9999999999999" as="targetPoint" />
          </mxGeometry>
        </mxCell>
        <mxCell id="39Y056oeODycGKBAAB_R-42" value="基于最新镜像(XAVIER Disk 2)" style="rounded=0;whiteSpace=wrap;html=1;fontSize=12;" vertex="1" parent="eiELui4HJ2NWo9TTOQv9-1">
          <mxGeometry x="-1700" y="320" width="120" height="40" as="geometry" />
        </mxCell>
        <mxCell id="39Y056oeODycGKBAAB_R-43" value="否" style="edgeStyle=orthogonalEdgeStyle;rounded=0;orthogonalLoop=1;jettySize=auto;html=1;fontSize=12;exitX=0;exitY=0.5;exitDx=0;exitDy=0;" edge="1" parent="eiELui4HJ2NWo9TTOQv9-1" source="39Y056oeODycGKBAAB_R-19" target="39Y056oeODycGKBAAB_R-42">
          <mxGeometry x="0.7895" relative="1" as="geometry">
            <mxPoint as="offset" />
            <mxPoint x="-1645" y="287.43" as="sourcePoint" />
            <Array as="points">
              <mxPoint x="-1640" y="260" />
            </Array>
          </mxGeometry>
        </mxCell>
        <mxCell id="39Y056oeODycGKBAAB_R-44" style="edgeStyle=orthogonalEdgeStyle;rounded=0;orthogonalLoop=1;jettySize=auto;html=1;exitX=0.5;exitY=1;exitDx=0;exitDy=0;entryX=0.5;entryY=0;entryDx=0;entryDy=0;fontSize=12;" edge="1" parent="eiELui4HJ2NWo9TTOQv9-1" source="39Y056oeODycGKBAAB_R-52" target="39Y056oeODycGKBAAB_R-31">
          <mxGeometry relative="1" as="geometry">
            <Array as="points">
              <mxPoint x="-1660" y="600" />
              <mxPoint x="-1390" y="600" />
            </Array>
          </mxGeometry>
        </mxCell>
        <mxCell id="39Y056oeODycGKBAAB_R-45" value="同步" style="edgeStyle=orthogonalEdgeStyle;rounded=0;orthogonalLoop=1;jettySize=auto;html=1;entryX=1;entryY=0.5;entryDx=0;entryDy=0;fontSize=12;" edge="1" parent="eiELui4HJ2NWo9TTOQv9-1" source="39Y056oeODycGKBAAB_R-46" target="39Y056oeODycGKBAAB_R-51">
          <mxGeometry relative="1" as="geometry" />
        </mxCell>
        <mxCell id="39Y056oeODycGKBAAB_R-46" value="&lt;p style=&quot;font-size: 12px&quot;&gt;更新开发 Docker + Map + QCraft&lt;/p&gt;" style="rounded=0;whiteSpace=wrap;html=1;fontSize=12;verticalAlign=middle;horizontal=1;" vertex="1" parent="eiELui4HJ2NWo9TTOQv9-1">
          <mxGeometry x="-1220" y="400" width="120" height="40" as="geometry" />
        </mxCell>
        <mxCell id="39Y056oeODycGKBAAB_R-47" style="edgeStyle=orthogonalEdgeStyle;rounded=0;orthogonalLoop=1;jettySize=auto;html=1;entryX=1;entryY=0.5;entryDx=0;entryDy=0;fontSize=12;verticalAlign=middle;horizontal=1;" edge="1" parent="eiELui4HJ2NWo9TTOQv9-1" target="39Y056oeODycGKBAAB_R-52">
          <mxGeometry relative="1" as="geometry">
            <mxPoint x="-1520" y="420" as="sourcePoint" />
          </mxGeometry>
        </mxCell>
        <mxCell id="39Y056oeODycGKBAAB_R-48" value="同步" style="edgeLabel;html=1;align=center;verticalAlign=middle;resizable=0;points=[];fontSize=12;horizontal=1;" vertex="1" connectable="0" parent="39Y056oeODycGKBAAB_R-47">
          <mxGeometry x="0.1818" y="1" relative="1" as="geometry">
            <mxPoint as="offset" />
          </mxGeometry>
        </mxCell>
        <mxCell id="39Y056oeODycGKBAAB_R-49" value="" style="edgeStyle=orthogonalEdgeStyle;rounded=0;orthogonalLoop=1;jettySize=auto;html=1;fontSize=12;" edge="1" parent="eiELui4HJ2NWo9TTOQv9-1" source="39Y056oeODycGKBAAB_R-50" target="39Y056oeODycGKBAAB_R-52">
          <mxGeometry relative="1" as="geometry" />
        </mxCell>
        <mxCell id="39Y056oeODycGKBAAB_R-50" value="&lt;p style=&quot;font-size: 12px&quot;&gt;更新发布&amp;nbsp;&lt;span&gt;Docker + Map&amp;nbsp;&lt;/span&gt;&lt;/p&gt;" style="rounded=0;whiteSpace=wrap;html=1;fontSize=12;verticalAlign=middle;horizontal=1;" vertex="1" parent="eiELui4HJ2NWo9TTOQv9-1">
          <mxGeometry x="-1540" y="400" width="120" height="40" as="geometry" />
        </mxCell>
        <mxCell id="39Y056oeODycGKBAAB_R-51" value="&lt;p style=&quot;font-size: 12px&quot;&gt;更新开发 Docker + QPad Docker&lt;br&gt;&lt;/p&gt;" style="rounded=0;whiteSpace=wrap;html=1;fontSize=12;verticalAlign=middle;horizontal=1;" vertex="1" parent="eiELui4HJ2NWo9TTOQv9-1">
          <mxGeometry x="-1380" y="400" width="120" height="40" as="geometry" />
        </mxCell>
        <mxCell id="39Y056oeODycGKBAAB_R-52" value="&lt;p style=&quot;font-size: 12px&quot;&gt;更新发布 Docker + QPad Docker&lt;/p&gt;" style="rounded=0;whiteSpace=wrap;html=1;fontSize=12;verticalAlign=middle;horizontal=1;" vertex="1" parent="eiELui4HJ2NWo9TTOQv9-1">
          <mxGeometry x="-1700" y="400" width="120" height="40" as="geometry" />
        </mxCell>
        <mxCell id="39Y056oeODycGKBAAB_R-53" style="edgeStyle=orthogonalEdgeStyle;rounded=0;orthogonalLoop=1;jettySize=auto;html=1;exitX=0.5;exitY=1;exitDx=0;exitDy=0;fontSize=12;" edge="1" parent="eiELui4HJ2NWo9TTOQv9-1" source="39Y056oeODycGKBAAB_R-54" target="39Y056oeODycGKBAAB_R-34">
          <mxGeometry relative="1" as="geometry" />
        </mxCell>
        <mxCell id="39Y056oeODycGKBAAB_R-54" value="&lt;p style=&quot;font-size: 12px&quot;&gt;更新基础软件&lt;/p&gt;" style="rounded=0;whiteSpace=wrap;html=1;fontSize=12;" vertex="1" parent="eiELui4HJ2NWo9TTOQv9-1">
          <mxGeometry x="-900" y="240" width="120" height="40" as="geometry" />
        </mxCell>
      </root>
    </mxGraphModel>
  </diagram>
  <diagram name="系统部署时序图" id="74e2e168-ea6b-b213-b513-2b3c1d86103e">
    <mxGraphModel dx="1995" dy="1134" grid="1" gridSize="10" guides="1" tooltips="1" connect="1" arrows="1" fold="1" page="1" pageScale="1" pageWidth="1100" pageHeight="850" background="#ffffff" math="0" shadow="0">
      <root>
        <mxCell id="0" />
        <mxCell id="1" parent="0" />
        <mxCell id="6PLmAHvb3xFuPF-B3GsO-1" value="QCraft 系统部署时序图（注：NAS 可替换为 SSD0，可加快数据准备与镜像制作速度，但数据准备阶段与镜像制作阶段需要串行完成）" style="swimlane;html=1;childLayout=stackLayout;startSize=20;rounded=0;shadow=0;labelBackgroundColor=none;strokeWidth=1;fontFamily=Verdana;fontSize=12;align=left;" parent="1" vertex="1">
          <mxGeometry x="1" y="10" width="810" height="810" as="geometry" />
        </mxCell>
        <mxCell id="6PLmAHvb3xFuPF-B3GsO-2" value="" style="swimlane;html=1;startSize=20;" parent="6PLmAHvb3xFuPF-B3GsO-1" vertex="1">
          <mxGeometry y="20" width="40" height="790" as="geometry" />
        </mxCell>
        <mxCell id="6PLmAHvb3xFuPF-B3GsO-3" value="数据准备阶段" style="whiteSpace=wrap;html=1;gradientDirection=west;fontFamily=Helvetica;horizontal=0;" parent="6PLmAHvb3xFuPF-B3GsO-2" vertex="1">
          <mxGeometry y="20" width="40" height="410" as="geometry" />
        </mxCell>
        <mxCell id="6PLmAHvb3xFuPF-B3GsO-4" value="系统部署阶段" style="whiteSpace=wrap;html=1;horizontal=0;" parent="6PLmAHvb3xFuPF-B3GsO-2" vertex="1">
          <mxGeometry y="630" width="40" height="160" as="geometry" />
        </mxCell>
        <mxCell id="6PLmAHvb3xFuPF-B3GsO-5" value="镜像制作阶段" style="whiteSpace=wrap;html=1;horizontal=0;" parent="6PLmAHvb3xFuPF-B3GsO-2" vertex="1">
          <mxGeometry y="430" width="40" height="200" as="geometry" />
        </mxCell>
        <mxCell id="6PLmAHvb3xFuPF-B3GsO-126" value="XAVIER" style="swimlane;html=1;startSize=20;" parent="6PLmAHvb3xFuPF-B3GsO-1" vertex="1">
          <mxGeometry x="40" y="20" width="160" height="790" as="geometry" />
        </mxCell>
        <mxCell id="6PLmAHvb3xFuPF-B3GsO-149" style="edgeStyle=orthogonalEdgeStyle;rounded=0;orthogonalLoop=1;jettySize=auto;html=1;exitX=0.5;exitY=1;exitDx=0;exitDy=0;entryX=0.5;entryY=0;entryDx=0;entryDy=0;" parent="6PLmAHvb3xFuPF-B3GsO-126" source="6PLmAHvb3xFuPF-B3GsO-127" target="6PLmAHvb3xFuPF-B3GsO-147" edge="1">
          <mxGeometry relative="1" as="geometry" />
        </mxCell>
        <mxCell id="6PLmAHvb3xFuPF-B3GsO-127" value="运行 build_xavier.sh 系统部署" style="rounded=1;whiteSpace=wrap;html=1;shadow=0;labelBackgroundColor=none;strokeWidth=1;fontFamily=Verdana;fontSize=12;align=center;imageHeight=24;" parent="6PLmAHvb3xFuPF-B3GsO-126" vertex="1">
          <mxGeometry x="30" y="650" width="100" height="40" as="geometry" />
        </mxCell>
        <mxCell id="6PLmAHvb3xFuPF-B3GsO-140" style="edgeStyle=orthogonalEdgeStyle;rounded=0;orthogonalLoop=1;jettySize=auto;html=1;exitX=0.5;exitY=1;exitDx=0;exitDy=0;entryX=0.5;entryY=0;entryDx=0;entryDy=0;" parent="6PLmAHvb3xFuPF-B3GsO-126" source="6PLmAHvb3xFuPF-B3GsO-130" target="6PLmAHvb3xFuPF-B3GsO-127" edge="1">
          <mxGeometry relative="1" as="geometry" />
        </mxCell>
        <mxCell id="6PLmAHvb3xFuPF-B3GsO-130" value="挂载SSD2" style="rounded=1;whiteSpace=wrap;html=1;shadow=0;labelBackgroundColor=none;strokeWidth=1;fontFamily=Verdana;fontSize=12;align=center;imageHeight=24;" parent="6PLmAHvb3xFuPF-B3GsO-126" vertex="1">
          <mxGeometry x="30" y="580" width="100" height="40" as="geometry" />
        </mxCell>
        <mxCell id="6PLmAHvb3xFuPF-B3GsO-147" value="结束部署" style="rounded=1;whiteSpace=wrap;html=1;shadow=0;labelBackgroundColor=none;strokeWidth=1;fontFamily=Verdana;fontSize=12;align=center;imageHeight=24;" parent="6PLmAHvb3xFuPF-B3GsO-126" vertex="1">
          <mxGeometry x="30" y="717" width="100" height="40" as="geometry" />
        </mxCell>
        <mxCell id="6PLmAHvb3xFuPF-B3GsO-6" value="Laptop/PC" style="swimlane;html=1;startSize=20;" parent="6PLmAHvb3xFuPF-B3GsO-1" vertex="1">
          <mxGeometry x="200" y="20" width="160" height="790" as="geometry" />
        </mxCell>
        <mxCell id="6PLmAHvb3xFuPF-B3GsO-7" style="edgeStyle=orthogonalEdgeStyle;rounded=0;orthogonalLoop=1;jettySize=auto;html=1;exitX=0.5;exitY=1;exitDx=0;exitDy=0;entryX=0.5;entryY=0;entryDx=0;entryDy=0;fontFamily=Helvetica;fontSize=14;" parent="6PLmAHvb3xFuPF-B3GsO-6" source="6PLmAHvb3xFuPF-B3GsO-8" target="6PLmAHvb3xFuPF-B3GsO-9" edge="1">
          <mxGeometry relative="1" as="geometry" />
        </mxCell>
        <mxCell id="6PLmAHvb3xFuPF-B3GsO-8" value="下载最新脚本" style="rounded=1;whiteSpace=wrap;html=1;shadow=0;labelBackgroundColor=none;strokeWidth=1;fontFamily=Verdana;fontSize=12;align=center;imageHeight=24;" parent="6PLmAHvb3xFuPF-B3GsO-6" vertex="1">
          <mxGeometry x="30" y="40" width="100" height="40" as="geometry" />
        </mxCell>
        <mxCell id="6PLmAHvb3xFuPF-B3GsO-89" style="edgeStyle=orthogonalEdgeStyle;rounded=0;orthogonalLoop=1;jettySize=auto;html=1;exitX=0.5;exitY=1;exitDx=0;exitDy=0;entryX=0.5;entryY=0;entryDx=0;entryDy=0;" parent="6PLmAHvb3xFuPF-B3GsO-6" source="6PLmAHvb3xFuPF-B3GsO-9" target="6PLmAHvb3xFuPF-B3GsO-41" edge="1">
          <mxGeometry relative="1" as="geometry" />
        </mxCell>
        <mxCell id="6PLmAHvb3xFuPF-B3GsO-9" value="挂载NAS" style="rounded=1;whiteSpace=wrap;html=1;shadow=0;labelBackgroundColor=none;strokeWidth=1;fontFamily=Verdana;fontSize=12;align=center;imageHeight=24;" parent="6PLmAHvb3xFuPF-B3GsO-6" vertex="1">
          <mxGeometry x="30" y="100" width="100" height="40" as="geometry" />
        </mxCell>
        <mxCell id="6PLmAHvb3xFuPF-B3GsO-143" style="edgeStyle=orthogonalEdgeStyle;rounded=0;orthogonalLoop=1;jettySize=auto;html=1;exitX=0.5;exitY=1;exitDx=0;exitDy=0;entryX=0.5;entryY=0;entryDx=0;entryDy=0;" parent="6PLmAHvb3xFuPF-B3GsO-6" source="6PLmAHvb3xFuPF-B3GsO-41" target="6PLmAHvb3xFuPF-B3GsO-98" edge="1">
          <mxGeometry relative="1" as="geometry" />
        </mxCell>
        <mxCell id="6PLmAHvb3xFuPF-B3GsO-41" value="运行install_release.sh部署脚本" style="rounded=1;whiteSpace=wrap;html=1;shadow=0;labelBackgroundColor=none;strokeWidth=1;fontFamily=Verdana;fontSize=12;align=center;imageHeight=24;" parent="6PLmAHvb3xFuPF-B3GsO-6" vertex="1">
          <mxGeometry x="30" y="160" width="100" height="40" as="geometry" />
        </mxCell>
        <mxCell id="6PLmAHvb3xFuPF-B3GsO-98" value="更新脚本目录" style="rounded=1;whiteSpace=wrap;html=1;shadow=0;labelBackgroundColor=none;strokeWidth=1;fontFamily=Verdana;fontSize=12;align=center;imageHeight=24;" parent="6PLmAHvb3xFuPF-B3GsO-6" vertex="1">
          <mxGeometry x="30" y="220" width="100" height="40" as="geometry" />
        </mxCell>
        <mxCell id="6PLmAHvb3xFuPF-B3GsO-42" value="准备原始数据" style="rounded=1;whiteSpace=wrap;html=1;shadow=0;labelBackgroundColor=none;strokeWidth=1;fontFamily=Verdana;fontSize=12;align=center;imageHeight=24;" parent="6PLmAHvb3xFuPF-B3GsO-6" vertex="1">
          <mxGeometry x="30" y="280" width="100" height="40" as="geometry" />
        </mxCell>
        <mxCell id="6PLmAHvb3xFuPF-B3GsO-43" value="运行prebuild.sh更新数据" style="rounded=1;whiteSpace=wrap;html=1;shadow=0;labelBackgroundColor=none;strokeWidth=1;fontFamily=Verdana;fontSize=12;align=center;imageHeight=24;" parent="6PLmAHvb3xFuPF-B3GsO-6" vertex="1">
          <mxGeometry x="30" y="340" width="100" height="40" as="geometry" />
        </mxCell>
        <mxCell id="6PLmAHvb3xFuPF-B3GsO-53" value="运行pakcage.sh打包数据" style="rounded=1;whiteSpace=wrap;html=1;shadow=0;labelBackgroundColor=none;strokeWidth=1;fontFamily=Verdana;fontSize=12;align=center;imageHeight=24;" parent="6PLmAHvb3xFuPF-B3GsO-6" vertex="1">
          <mxGeometry x="30" y="450" width="100" height="40" as="geometry" />
        </mxCell>
        <mxCell id="6PLmAHvb3xFuPF-B3GsO-52" value="拷贝数据到SSD2" style="rounded=1;whiteSpace=wrap;html=1;shadow=0;labelBackgroundColor=none;strokeWidth=1;fontFamily=Verdana;fontSize=12;align=center;imageHeight=24;" parent="6PLmAHvb3xFuPF-B3GsO-6" vertex="1">
          <mxGeometry x="30" y="580" width="100" height="40" as="geometry" />
        </mxCell>
        <mxCell id="6PLmAHvb3xFuPF-B3GsO-100" style="edgeStyle=orthogonalEdgeStyle;rounded=0;orthogonalLoop=1;jettySize=auto;html=1;exitX=0.5;exitY=1;exitDx=0;exitDy=0;entryX=0.5;entryY=0;entryDx=0;entryDy=0;" parent="6PLmAHvb3xFuPF-B3GsO-6" source="6PLmAHvb3xFuPF-B3GsO-98" target="6PLmAHvb3xFuPF-B3GsO-42" edge="1">
          <mxGeometry relative="1" as="geometry" />
        </mxCell>
        <mxCell id="6PLmAHvb3xFuPF-B3GsO-101" style="edgeStyle=orthogonalEdgeStyle;rounded=0;orthogonalLoop=1;jettySize=auto;html=1;exitX=0.5;exitY=1;exitDx=0;exitDy=0;entryX=0.5;entryY=0;entryDx=0;entryDy=0;" parent="6PLmAHvb3xFuPF-B3GsO-6" source="6PLmAHvb3xFuPF-B3GsO-42" target="6PLmAHvb3xFuPF-B3GsO-43" edge="1">
          <mxGeometry relative="1" as="geometry" />
        </mxCell>
        <mxCell id="6PLmAHvb3xFuPF-B3GsO-118" style="edgeStyle=orthogonalEdgeStyle;rounded=0;orthogonalLoop=1;jettySize=auto;html=1;exitX=0.5;exitY=1;exitDx=0;exitDy=0;" parent="6PLmAHvb3xFuPF-B3GsO-6" source="6PLmAHvb3xFuPF-B3GsO-43" target="6PLmAHvb3xFuPF-B3GsO-53" edge="1">
          <mxGeometry relative="1" as="geometry" />
        </mxCell>
        <mxCell id="6PLmAHvb3xFuPF-B3GsO-137" style="edgeStyle=orthogonalEdgeStyle;rounded=0;orthogonalLoop=1;jettySize=auto;html=1;exitX=0.5;exitY=1;exitDx=0;exitDy=0;entryX=0.5;entryY=0;entryDx=0;entryDy=0;" parent="6PLmAHvb3xFuPF-B3GsO-6" source="6PLmAHvb3xFuPF-B3GsO-53" target="6PLmAHvb3xFuPF-B3GsO-52" edge="1">
          <mxGeometry relative="1" as="geometry" />
        </mxCell>
        <mxCell id="6PLmAHvb3xFuPF-B3GsO-21" value="OMC(TestBench)" style="swimlane;html=1;startSize=20;" parent="6PLmAHvb3xFuPF-B3GsO-1" vertex="1">
          <mxGeometry x="360" y="20" width="290" height="790" as="geometry" />
        </mxCell>
        <mxCell id="6PLmAHvb3xFuPF-B3GsO-104" style="edgeStyle=orthogonalEdgeStyle;rounded=0;orthogonalLoop=1;jettySize=auto;html=1;exitX=0.5;exitY=1;exitDx=0;exitDy=0;entryX=0.5;entryY=0;entryDx=0;entryDy=0;" parent="6PLmAHvb3xFuPF-B3GsO-21" source="6PLmAHvb3xFuPF-B3GsO-51" target="6PLmAHvb3xFuPF-B3GsO-103" edge="1">
          <mxGeometry relative="1" as="geometry" />
        </mxCell>
        <mxCell id="6PLmAHvb3xFuPF-B3GsO-51" value="运行 CloneZilla 系统还原" style="rounded=1;whiteSpace=wrap;html=1;shadow=0;labelBackgroundColor=none;strokeWidth=1;fontFamily=Verdana;fontSize=12;align=center;imageHeight=24;" parent="6PLmAHvb3xFuPF-B3GsO-21" vertex="1">
          <mxGeometry x="40" y="40" width="100" height="40" as="geometry" />
        </mxCell>
        <mxCell id="6PLmAHvb3xFuPF-B3GsO-110" style="edgeStyle=orthogonalEdgeStyle;rounded=0;orthogonalLoop=1;jettySize=auto;html=1;exitX=0.219;exitY=0.971;exitDx=0;exitDy=0;entryX=0.5;entryY=0;entryDx=0;entryDy=0;exitPerimeter=0;" parent="6PLmAHvb3xFuPF-B3GsO-21" source="6PLmAHvb3xFuPF-B3GsO-112" target="6PLmAHvb3xFuPF-B3GsO-84" edge="1">
          <mxGeometry relative="1" as="geometry" />
        </mxCell>
        <mxCell id="6PLmAHvb3xFuPF-B3GsO-111" value="&lt;span style=&quot;color: rgb(23 , 43 , 77) ; font-size: 12px ; text-align: left ; background-color: rgb(244 , 245 , 247)&quot;&gt;BOOTSTRAP=true INIT=true&lt;/span&gt;" style="edgeLabel;html=1;align=center;verticalAlign=middle;resizable=0;points=[];" parent="6PLmAHvb3xFuPF-B3GsO-110" vertex="1" connectable="0">
          <mxGeometry x="0.2267" y="2" relative="1" as="geometry">
            <mxPoint as="offset" />
          </mxGeometry>
        </mxCell>
        <mxCell id="6PLmAHvb3xFuPF-B3GsO-44" value="&lt;span style=&quot;font-family: &amp;#34;helvetica&amp;#34; ; font-size: 11px ; background-color: rgb(255 , 255 , 255)&quot;&gt;纯净系统&lt;/span&gt;" style="rounded=1;whiteSpace=wrap;html=1;shadow=0;labelBackgroundColor=none;strokeWidth=1;fontFamily=Verdana;fontSize=12;align=center;imageHeight=24;" parent="6PLmAHvb3xFuPF-B3GsO-21" vertex="1">
          <mxGeometry x="40" y="220" width="100" height="40" as="geometry" />
        </mxCell>
        <mxCell id="6PLmAHvb3xFuPF-B3GsO-103" value="纯净系统" style="rhombus;whiteSpace=wrap;html=1;rounded=0;shadow=0;labelBackgroundColor=none;strokeWidth=1;fontFamily=Verdana;fontSize=12;align=center;" parent="6PLmAHvb3xFuPF-B3GsO-21" vertex="1">
          <mxGeometry x="40" y="130" width="100" height="40" as="geometry" />
        </mxCell>
        <mxCell id="6PLmAHvb3xFuPF-B3GsO-106" style="edgeStyle=orthogonalEdgeStyle;rounded=0;orthogonalLoop=1;jettySize=auto;html=1;exitX=0.5;exitY=1;exitDx=0;exitDy=0;entryX=0.5;entryY=0;entryDx=0;entryDy=0;" parent="6PLmAHvb3xFuPF-B3GsO-21" source="6PLmAHvb3xFuPF-B3GsO-103" target="6PLmAHvb3xFuPF-B3GsO-44" edge="1">
          <mxGeometry relative="1" as="geometry">
            <mxPoint x="50.16666666666674" y="195" as="targetPoint" />
          </mxGeometry>
        </mxCell>
        <mxCell id="6PLmAHvb3xFuPF-B3GsO-108" value="是" style="edgeLabel;html=1;align=center;verticalAlign=middle;resizable=0;points=[];" parent="6PLmAHvb3xFuPF-B3GsO-106" vertex="1" connectable="0">
          <mxGeometry x="-0.2583" y="-1" relative="1" as="geometry">
            <mxPoint x="1" y="6.67" as="offset" />
          </mxGeometry>
        </mxCell>
        <mxCell id="6PLmAHvb3xFuPF-B3GsO-117" style="edgeStyle=orthogonalEdgeStyle;rounded=0;orthogonalLoop=1;jettySize=auto;html=1;exitX=0.5;exitY=1;exitDx=0;exitDy=0;entryX=0.5;entryY=0;entryDx=0;entryDy=0;" parent="6PLmAHvb3xFuPF-B3GsO-21" source="6PLmAHvb3xFuPF-B3GsO-10" target="6PLmAHvb3xFuPF-B3GsO-83" edge="1">
          <mxGeometry relative="1" as="geometry" />
        </mxCell>
        <mxCell id="6PLmAHvb3xFuPF-B3GsO-10" value="运行 build_omc.sh" style="rounded=1;whiteSpace=wrap;html=1;shadow=0;labelBackgroundColor=none;strokeWidth=1;fontFamily=Verdana;fontSize=12;align=center;imageHeight=24;" parent="6PLmAHvb3xFuPF-B3GsO-21" vertex="1">
          <mxGeometry x="150" y="449.33" width="100" height="40" as="geometry" />
        </mxCell>
        <mxCell id="6PLmAHvb3xFuPF-B3GsO-123" style="edgeStyle=orthogonalEdgeStyle;rounded=0;orthogonalLoop=1;jettySize=auto;html=1;exitX=0.5;exitY=1;exitDx=0;exitDy=0;" parent="6PLmAHvb3xFuPF-B3GsO-21" source="6PLmAHvb3xFuPF-B3GsO-109" edge="1">
          <mxGeometry relative="1" as="geometry">
            <mxPoint x="200" y="340" as="targetPoint" />
          </mxGeometry>
        </mxCell>
        <mxCell id="6PLmAHvb3xFuPF-B3GsO-109" value="&lt;span style=&quot;font-family: &amp;#34;helvetica&amp;#34; ; font-size: 11px ; background-color: rgb(255 , 255 , 255)&quot;&gt;基础系统&lt;/span&gt;" style="rounded=1;whiteSpace=wrap;html=1;shadow=0;labelBackgroundColor=none;strokeWidth=1;fontFamily=Verdana;fontSize=12;align=center;imageHeight=24;" parent="6PLmAHvb3xFuPF-B3GsO-21" vertex="1">
          <mxGeometry x="150" y="220" width="100" height="40" as="geometry" />
        </mxCell>
        <mxCell id="6PLmAHvb3xFuPF-B3GsO-105" style="edgeStyle=orthogonalEdgeStyle;rounded=0;orthogonalLoop=1;jettySize=auto;html=1;exitX=1;exitY=0.5;exitDx=0;exitDy=0;" parent="6PLmAHvb3xFuPF-B3GsO-21" source="6PLmAHvb3xFuPF-B3GsO-103" target="6PLmAHvb3xFuPF-B3GsO-109" edge="1">
          <mxGeometry relative="1" as="geometry" />
        </mxCell>
        <mxCell id="6PLmAHvb3xFuPF-B3GsO-107" value="否" style="edgeLabel;html=1;align=center;verticalAlign=middle;resizable=0;points=[];" parent="6PLmAHvb3xFuPF-B3GsO-105" vertex="1" connectable="0">
          <mxGeometry x="-0.3569" y="-2" relative="1" as="geometry">
            <mxPoint x="15" y="48" as="offset" />
          </mxGeometry>
        </mxCell>
        <mxCell id="6PLmAHvb3xFuPF-B3GsO-48" style="edgeStyle=orthogonalEdgeStyle;rounded=0;orthogonalLoop=1;jettySize=auto;html=1;exitX=0.5;exitY=1;exitDx=0;exitDy=0;entryX=0.5;entryY=0;entryDx=0;entryDy=0;" parent="6PLmAHvb3xFuPF-B3GsO-21" target="6PLmAHvb3xFuPF-B3GsO-10" edge="1">
          <mxGeometry relative="1" as="geometry">
            <mxPoint x="200" y="380" as="sourcePoint" />
          </mxGeometry>
        </mxCell>
        <mxCell id="6PLmAHvb3xFuPF-B3GsO-49" value="&lt;span style=&quot;color: rgb(23 , 43 , 77) ; font-family: , &amp;#34;sf mono&amp;#34; , &amp;#34;segoe ui mono&amp;#34; , &amp;#34;roboto mono&amp;#34; , &amp;#34;ubuntu mono&amp;#34; , &amp;#34;menlo&amp;#34; , &amp;#34;consolas&amp;#34; , &amp;#34;courier&amp;#34; , monospace ; font-size: 12px ; text-align: left ; background-color: rgb(244 , 245 , 247)&quot;&gt;BOOTSTRAP=false INIT=true&lt;/span&gt;" style="edgeLabel;html=1;align=center;verticalAlign=middle;resizable=0;points=[];" parent="6PLmAHvb3xFuPF-B3GsO-48" vertex="1" connectable="0">
          <mxGeometry x="-0.2235" y="1" relative="1" as="geometry">
            <mxPoint x="-1" y="-6.670000000000002" as="offset" />
          </mxGeometry>
        </mxCell>
        <mxCell id="6PLmAHvb3xFuPF-B3GsO-116" style="edgeStyle=orthogonalEdgeStyle;rounded=0;orthogonalLoop=1;jettySize=auto;html=1;exitX=0.5;exitY=1;exitDx=0;exitDy=0;entryX=0.5;entryY=0;entryDx=0;entryDy=0;" parent="6PLmAHvb3xFuPF-B3GsO-21" source="6PLmAHvb3xFuPF-B3GsO-84" target="6PLmAHvb3xFuPF-B3GsO-83" edge="1">
          <mxGeometry relative="1" as="geometry" />
        </mxCell>
        <mxCell id="6PLmAHvb3xFuPF-B3GsO-84" value="运行 build_omc.sh" style="rounded=1;whiteSpace=wrap;html=1;shadow=0;labelBackgroundColor=none;strokeWidth=1;fontFamily=Verdana;fontSize=12;align=center;imageHeight=24;" parent="6PLmAHvb3xFuPF-B3GsO-21" vertex="1">
          <mxGeometry x="40" y="449.33" width="100" height="40" as="geometry" />
        </mxCell>
        <mxCell id="6PLmAHvb3xFuPF-B3GsO-152" style="edgeStyle=orthogonalEdgeStyle;rounded=0;orthogonalLoop=1;jettySize=auto;html=1;exitX=0;exitY=0.5;exitDx=0;exitDy=0;entryX=0.5;entryY=0;entryDx=0;entryDy=0;" parent="6PLmAHvb3xFuPF-B3GsO-21" source="6PLmAHvb3xFuPF-B3GsO-83" target="6PLmAHvb3xFuPF-B3GsO-124" edge="1">
          <mxGeometry relative="1" as="geometry">
            <Array as="points">
              <mxPoint x="90" y="540" />
            </Array>
          </mxGeometry>
        </mxCell>
        <mxCell id="6PLmAHvb3xFuPF-B3GsO-83" value="运行 CloneZilla 系统制作" style="rounded=1;whiteSpace=wrap;html=1;shadow=0;labelBackgroundColor=none;strokeWidth=1;fontFamily=Verdana;fontSize=12;align=center;imageHeight=24;" parent="6PLmAHvb3xFuPF-B3GsO-21" vertex="1">
          <mxGeometry x="99" y="520" width="100" height="40" as="geometry" />
        </mxCell>
        <mxCell id="6PLmAHvb3xFuPF-B3GsO-112" value="挂载NAS" style="rounded=1;whiteSpace=wrap;html=1;shadow=0;labelBackgroundColor=none;strokeWidth=1;fontFamily=Verdana;fontSize=12;align=center;imageHeight=24;" parent="6PLmAHvb3xFuPF-B3GsO-21" vertex="1">
          <mxGeometry x="40" y="340" width="224" height="40" as="geometry" />
        </mxCell>
        <mxCell id="6PLmAHvb3xFuPF-B3GsO-113" style="edgeStyle=orthogonalEdgeStyle;rounded=0;orthogonalLoop=1;jettySize=auto;html=1;exitX=0.5;exitY=1;exitDx=0;exitDy=0;entryX=0.223;entryY=0.075;entryDx=0;entryDy=0;entryPerimeter=0;" parent="6PLmAHvb3xFuPF-B3GsO-21" source="6PLmAHvb3xFuPF-B3GsO-44" target="6PLmAHvb3xFuPF-B3GsO-112" edge="1">
          <mxGeometry relative="1" as="geometry">
            <mxPoint x="679.9999999999998" y="285" as="sourcePoint" />
            <mxPoint x="679.9999999999998" y="418.3299999999999" as="targetPoint" />
          </mxGeometry>
        </mxCell>
        <mxCell id="6PLmAHvb3xFuPF-B3GsO-124" value="存储镜像到SSD" style="rounded=1;whiteSpace=wrap;html=1;shadow=0;labelBackgroundColor=none;strokeWidth=1;fontFamily=Verdana;fontSize=12;align=center;imageHeight=24;" parent="6PLmAHvb3xFuPF-B3GsO-21" vertex="1">
          <mxGeometry x="40" y="580" width="100" height="40" as="geometry" />
        </mxCell>
        <mxCell id="6PLmAHvb3xFuPF-B3GsO-128" value="拷贝镜像到SSD1" style="rounded=1;whiteSpace=wrap;html=1;shadow=0;labelBackgroundColor=none;strokeWidth=1;fontFamily=Verdana;fontSize=12;align=center;imageHeight=24;" parent="6PLmAHvb3xFuPF-B3GsO-21" vertex="1">
          <mxGeometry x="164" y="580" width="100" height="40" as="geometry" />
        </mxCell>
        <mxCell id="6PLmAHvb3xFuPF-B3GsO-129" style="edgeStyle=orthogonalEdgeStyle;rounded=0;orthogonalLoop=1;jettySize=auto;html=1;exitX=1;exitY=0.5;exitDx=0;exitDy=0;entryX=0;entryY=0.5;entryDx=0;entryDy=0;" parent="6PLmAHvb3xFuPF-B3GsO-21" source="6PLmAHvb3xFuPF-B3GsO-124" target="6PLmAHvb3xFuPF-B3GsO-128" edge="1">
          <mxGeometry relative="1" as="geometry" />
        </mxCell>
        <mxCell id="6PLmAHvb3xFuPF-B3GsO-29" value="OMC" style="swimlane;html=1;startSize=20;" parent="6PLmAHvb3xFuPF-B3GsO-1" vertex="1">
          <mxGeometry x="650" y="20" width="160" height="790" as="geometry" />
        </mxCell>
        <mxCell id="6PLmAHvb3xFuPF-B3GsO-150" style="edgeStyle=orthogonalEdgeStyle;rounded=0;orthogonalLoop=1;jettySize=auto;html=1;exitX=0.5;exitY=1;exitDx=0;exitDy=0;entryX=0.5;entryY=0;entryDx=0;entryDy=0;" parent="6PLmAHvb3xFuPF-B3GsO-29" source="6PLmAHvb3xFuPF-B3GsO-23" target="6PLmAHvb3xFuPF-B3GsO-148" edge="1">
          <mxGeometry relative="1" as="geometry" />
        </mxCell>
        <mxCell id="6PLmAHvb3xFuPF-B3GsO-23" value="运行 CloneZilla 系统还原" style="rounded=1;whiteSpace=wrap;html=1;shadow=0;labelBackgroundColor=none;strokeWidth=1;fontFamily=Verdana;fontSize=12;align=center;imageHeight=24;" parent="6PLmAHvb3xFuPF-B3GsO-29" vertex="1">
          <mxGeometry x="30" y="650" width="100" height="40" as="geometry" />
        </mxCell>
        <mxCell id="6PLmAHvb3xFuPF-B3GsO-148" value="结束部署" style="rounded=1;whiteSpace=wrap;html=1;shadow=0;labelBackgroundColor=none;strokeWidth=1;fontFamily=Verdana;fontSize=12;align=center;imageHeight=24;" parent="6PLmAHvb3xFuPF-B3GsO-29" vertex="1">
          <mxGeometry x="30" y="717" width="100" height="40" as="geometry" />
        </mxCell>
        <mxCell id="6PLmAHvb3xFuPF-B3GsO-155" style="edgeStyle=orthogonalEdgeStyle;rounded=0;orthogonalLoop=1;jettySize=auto;html=1;exitX=0.5;exitY=1;exitDx=0;exitDy=0;" parent="6PLmAHvb3xFuPF-B3GsO-29" source="6PLmAHvb3xFuPF-B3GsO-153" target="6PLmAHvb3xFuPF-B3GsO-23" edge="1">
          <mxGeometry relative="1" as="geometry" />
        </mxCell>
        <mxCell id="6PLmAHvb3xFuPF-B3GsO-153" value="挂载SSD1" style="rounded=1;whiteSpace=wrap;html=1;shadow=0;labelBackgroundColor=none;strokeWidth=1;fontFamily=Verdana;fontSize=12;align=center;imageHeight=24;" parent="6PLmAHvb3xFuPF-B3GsO-29" vertex="1">
          <mxGeometry x="30" y="580" width="100" height="40" as="geometry" />
        </mxCell>
        <mxCell id="6PLmAHvb3xFuPF-B3GsO-146" style="edgeStyle=orthogonalEdgeStyle;rounded=0;orthogonalLoop=1;jettySize=auto;html=1;exitX=0;exitY=0.5;exitDx=0;exitDy=0;entryX=1;entryY=0.5;entryDx=0;entryDy=0;" parent="6PLmAHvb3xFuPF-B3GsO-1" source="6PLmAHvb3xFuPF-B3GsO-52" target="6PLmAHvb3xFuPF-B3GsO-130" edge="1">
          <mxGeometry relative="1" as="geometry" />
        </mxCell>
        <mxCell id="6PLmAHvb3xFuPF-B3GsO-154" style="edgeStyle=orthogonalEdgeStyle;rounded=0;orthogonalLoop=1;jettySize=auto;html=1;exitX=1;exitY=0.5;exitDx=0;exitDy=0;" parent="6PLmAHvb3xFuPF-B3GsO-1" source="6PLmAHvb3xFuPF-B3GsO-128" target="6PLmAHvb3xFuPF-B3GsO-153" edge="1">
          <mxGeometry relative="1" as="geometry" />
        </mxCell>
      </root>
    </mxGraphModel>
  </diagram>
  <diagram id="2QlITJcQqG1jLb6zn3pC" name="笔记本拓扑图">
    <mxGraphModel dx="1995" dy="1134" grid="1" gridSize="10" guides="1" tooltips="1" connect="1" arrows="1" fold="1" page="1" pageScale="1" pageWidth="850" pageHeight="1100" math="0" shadow="0">
      <root>
        <mxCell id="oDKh-yaL_UMwe9P5Hrqy-0" />
        <mxCell id="oDKh-yaL_UMwe9P5Hrqy-1" parent="oDKh-yaL_UMwe9P5Hrqy-0" />
        <mxCell id="oDKh-yaL_UMwe9P5Hrqy-2" style="edgeStyle=orthogonalEdgeStyle;rounded=0;orthogonalLoop=1;jettySize=auto;html=1;exitX=0.5;exitY=0;exitDx=0;exitDy=0;fontSize=16;entryX=0.532;entryY=1.05;entryDx=0;entryDy=0;entryPerimeter=0;" edge="1" parent="oDKh-yaL_UMwe9P5Hrqy-1" source="oDKh-yaL_UMwe9P5Hrqy-4" target="oDKh-yaL_UMwe9P5Hrqy-14">
          <mxGeometry relative="1" as="geometry" />
        </mxCell>
        <mxCell id="oDKh-yaL_UMwe9P5Hrqy-3" value="Wired+SSH" style="edgeLabel;html=1;align=center;verticalAlign=middle;resizable=0;points=[];fontSize=16;fontFamily=Helvetica;fontColor=#000000;" vertex="1" connectable="0" parent="oDKh-yaL_UMwe9P5Hrqy-2">
          <mxGeometry x="-0.1494" y="3" relative="1" as="geometry">
            <mxPoint as="offset" />
          </mxGeometry>
        </mxCell>
        <mxCell id="oDKh-yaL_UMwe9P5Hrqy-4" value="" style="shape=image;html=1;verticalAlign=top;verticalLabelPosition=bottom;labelBackgroundColor=#ffffff;imageAspect=0;image=https://cdn0.iconfinder.com/data/icons/devices-42/512/Laptop-128.png;fontSize=16;spacing=0;labelBorderColor=none;aspect=fixed;" vertex="1" parent="oDKh-yaL_UMwe9P5Hrqy-1">
          <mxGeometry x="163.39" y="460" width="128" height="128" as="geometry" />
        </mxCell>
        <mxCell id="oDKh-yaL_UMwe9P5Hrqy-5" value="&lt;span style=&quot;font-size: 16px&quot;&gt;Pad&lt;/span&gt;" style="shape=image;html=1;verticalAlign=top;verticalLabelPosition=bottom;labelBackgroundColor=#ffffff;imageAspect=0;aspect=fixed;image=https://cdn2.iconfinder.com/data/icons/pinpoint-interface-ii/48/device-tablet-128.png" vertex="1" parent="oDKh-yaL_UMwe9P5Hrqy-1">
          <mxGeometry width="90" height="90" as="geometry" />
        </mxCell>
        <mxCell id="oDKh-yaL_UMwe9P5Hrqy-6" value="Display" style="pointerEvents=1;shadow=0;dashed=0;html=1;strokeColor=none;fillColor=#434445;aspect=fixed;labelPosition=center;verticalLabelPosition=bottom;verticalAlign=top;align=center;outlineConnect=0;shape=mxgraph.vvd.monitor;fontSize=16;" vertex="1" parent="oDKh-yaL_UMwe9P5Hrqy-1">
          <mxGeometry x="179" width="96.78" height="90" as="geometry" />
        </mxCell>
        <mxCell id="oDKh-yaL_UMwe9P5Hrqy-7" style="edgeStyle=orthogonalEdgeStyle;rounded=0;orthogonalLoop=1;jettySize=auto;html=1;exitX=0.94;exitY=0.5;exitDx=0;exitDy=0;exitPerimeter=0;fontSize=16;" edge="1" parent="oDKh-yaL_UMwe9P5Hrqy-1" source="oDKh-yaL_UMwe9P5Hrqy-13">
          <mxGeometry relative="1" as="geometry">
            <mxPoint x="227" y="120" as="targetPoint" />
          </mxGeometry>
        </mxCell>
        <mxCell id="oDKh-yaL_UMwe9P5Hrqy-8" value="HDMI" style="edgeLabel;html=1;align=center;verticalAlign=middle;resizable=0;points=[];fontSize=16;" vertex="1" connectable="0" parent="oDKh-yaL_UMwe9P5Hrqy-7">
          <mxGeometry x="0.2768" y="3" relative="1" as="geometry">
            <mxPoint x="2.99" y="21.4" as="offset" />
          </mxGeometry>
        </mxCell>
        <mxCell id="oDKh-yaL_UMwe9P5Hrqy-9" style="edgeStyle=orthogonalEdgeStyle;rounded=0;orthogonalLoop=1;jettySize=auto;html=1;exitX=0.5;exitY=0;exitDx=0;exitDy=0;exitPerimeter=0;entryX=0.5;entryY=1;entryDx=0;entryDy=0;dashed=1;" edge="1" parent="oDKh-yaL_UMwe9P5Hrqy-1" source="oDKh-yaL_UMwe9P5Hrqy-13" target="oDKh-yaL_UMwe9P5Hrqy-5">
          <mxGeometry relative="1" as="geometry">
            <Array as="points">
              <mxPoint x="128" y="263" />
              <mxPoint x="45" y="263" />
            </Array>
          </mxGeometry>
        </mxCell>
        <mxCell id="oDKh-yaL_UMwe9P5Hrqy-10" value="Wifi+gRPC" style="edgeLabel;html=1;align=center;verticalAlign=middle;resizable=0;points=[];fontSize=16;" vertex="1" connectable="0" parent="oDKh-yaL_UMwe9P5Hrqy-9">
          <mxGeometry x="-0.2822" relative="1" as="geometry">
            <mxPoint y="-92.1" as="offset" />
          </mxGeometry>
        </mxCell>
        <mxCell id="oDKh-yaL_UMwe9P5Hrqy-11" style="edgeStyle=orthogonalEdgeStyle;rounded=0;orthogonalLoop=1;jettySize=auto;html=1;exitX=0.5;exitY=1;exitDx=0;exitDy=0;exitPerimeter=0;fontFamily=Helvetica;fontSize=24;fontColor=#000000;" edge="1" parent="oDKh-yaL_UMwe9P5Hrqy-1" source="oDKh-yaL_UMwe9P5Hrqy-13" target="oDKh-yaL_UMwe9P5Hrqy-15">
          <mxGeometry relative="1" as="geometry" />
        </mxCell>
        <mxCell id="oDKh-yaL_UMwe9P5Hrqy-12" value="Wired+gRPC" style="edgeLabel;html=1;align=center;verticalAlign=middle;resizable=0;points=[];fontSize=16;fontFamily=Helvetica;fontColor=#000000;" vertex="1" connectable="0" parent="oDKh-yaL_UMwe9P5Hrqy-11">
          <mxGeometry x="-0.21" y="3" relative="1" as="geometry">
            <mxPoint as="offset" />
          </mxGeometry>
        </mxCell>
        <mxCell id="oDKh-yaL_UMwe9P5Hrqy-13" value="" style="shape=mxgraph.cisco.computers_and_peripherals.ibm_tower;html=1;pointerEvents=1;dashed=0;strokeColor=#ffffff;strokeWidth=2;verticalLabelPosition=bottom;verticalAlign=top;align=center;outlineConnect=0;rotatable=1;rotation=-91;fillColor=#1A1A1A;" vertex="1" parent="oDKh-yaL_UMwe9P5Hrqy-1">
          <mxGeometry x="189.88" y="162" width="75.01" height="200" as="geometry" />
        </mxCell>
        <mxCell id="oDKh-yaL_UMwe9P5Hrqy-14" value="OMC" style="text;html=1;align=center;verticalAlign=middle;resizable=0;points=[];autosize=1;fontSize=16;fontFamily=Helvetica;fontStyle=0;labelBackgroundColor=#ffffff;" vertex="1" parent="oDKh-yaL_UMwe9P5Hrqy-1">
          <mxGeometry x="203.39" y="310" width="50" height="20" as="geometry" />
        </mxCell>
        <mxCell id="oDKh-yaL_UMwe9P5Hrqy-15" value="" style="shape=mxgraph.cisco.computers_and_peripherals.ibm_tower;html=1;pointerEvents=1;dashed=0;strokeColor=#ffffff;strokeWidth=2;verticalLabelPosition=bottom;verticalAlign=top;align=center;outlineConnect=0;rotatable=1;rotation=-91;fillColor=#1A1A1A;" vertex="1" parent="oDKh-yaL_UMwe9P5Hrqy-1">
          <mxGeometry x="531.61" y="207" width="46.78" height="100" as="geometry" />
        </mxCell>
        <mxCell id="oDKh-yaL_UMwe9P5Hrqy-16" value="Xavier" style="text;html=1;align=center;verticalAlign=middle;resizable=0;points=[];autosize=1;fontSize=16;fontFamily=Helvetica;fontStyle=0;labelBackgroundColor=#ffffff;" vertex="1" parent="oDKh-yaL_UMwe9P5Hrqy-1">
          <mxGeometry x="525" y="285" width="60" height="20" as="geometry" />
        </mxCell>
        <mxCell id="oDKh-yaL_UMwe9P5Hrqy-17" value="Laptop" style="text;html=1;align=center;verticalAlign=middle;resizable=0;points=[];autosize=1;fontSize=16;fontFamily=Helvetica;fontStyle=0;labelBackgroundColor=#ffffff;" vertex="1" parent="oDKh-yaL_UMwe9P5Hrqy-1">
          <mxGeometry x="192.39" y="558" width="70" height="20" as="geometry" />
        </mxCell>
      </root>
    </mxGraphModel>
  </diagram>
</mxfile>
